<svg xmlns="http://www.w3.org/2000/svg" width="1024" height="1024"><path fill="#AC3AF7" d="m125.493 457.865 2.038.028q2.245.035 4.49.08c2.517.052 5.034.09 7.551.126q5.705.083 11.41.178c10.931.178 21.863.31 32.795.43l3.752.042c41.983.45 83.97.338 125.953.315l12.873-.006q38.322-.017 76.645-.058-.218 2.35-.442 4.7l-.249 2.643c-.488 4.198-1.401 8.276-2.34 12.391l-.594 2.672q-.932 4.173-1.875 8.344-.94 4.192-1.875 8.387-.579 2.595-1.165 5.189c-.945 4.21-1.803 8.406-2.46 12.674l2.773-.035 3.602-.027 3.586-.036C405 516 405 516 407 517l.36-3.791c.623-5.593 1.732-11.05 2.89-16.553l.661-3.182q.689-3.304 1.382-6.606 1.063-5.076 2.113-10.157l1.344-6.43c.21-1.016.42-2.033.638-3.08l.596-2.824.523-2.495C418 460 418 460 419 459a69 69 0 0 1 4.473-.098l2.724.01 2.866.026 2.876.013q3.53.018 7.061.049c1.334 2.667.76 3.836.095 6.726l-.683 3.016c-.254 1.093-.51 2.186-.771 3.313l-.789 3.466a4129 4129 0 0 1-2.152 9.394c-1.369 5.963-2.714 11.93-4.063 17.898l-.463 2.045c-3.163 13.98-6.167 27.99-9.111 42.017l-.687 3.269q-1.309 6.227-2.613 12.456a5007 5007 0 0 1-5.45 25.65l-.74 3.445L410 599c-4.518.883-8.775 1.106-13.375 1.063l-3.773-.028L390 600c-1.08-3.238-.932-4.26-.227-7.496l.587-2.753.66-2.974.662-3.076c.703-3.256 1.416-6.51 2.13-9.763q1.051-4.845 2.099-9.689.653-3.014 1.312-6.027c.599-2.74 1.188-5.48 1.777-8.222l.63-2.847.584-2.725.531-2.437c.452-2.061.452-2.061-.745-3.991h-14l-.346 3.736c-.66 5.91-1.882 11.672-3.123 17.483l-.728 3.452q-.758 3.585-1.523 7.17c-.783 3.674-1.557 7.35-2.33 11.026l-1.481 6.977-.704 3.345-.658 3.067-.576 2.71C374 599 374 599 373 600c-2.615.1-5.198.139-7.812.125l-2.198.012c-3.501-.007-6.623-.196-9.99-1.137 2.336-14.256 5.388-28.333 8.5-42.437l1.581-7.206q2.044-9.308 4.095-18.613 2.031-9.23 4.058-18.463Q375.112 494.64 379 477l-3 1c-1.474.09-2.953.124-4.43.123l-2.762.006-3.04-.009-3.224.003q-5.376 0-10.752-.01l-7.686.001q-8.288 0-16.574-.008-11.982-.011-23.964-.012-19.44-.004-38.878-.019a96557 96557 0 0 0-51.798-.025q-48.446-.016-96.892-.05-.118-4.438-.187-8.875l-.077-2.55-.029-2.442-.048-2.254L116 460c3.634-2.423 5.173-2.216 9.493-2.135"/><path fill="#AA3AF6" d="M472 320c1.938.313 1.938.313 4 1 1.284 3.852.532 5.885-.398 9.828l-.468 2.022c-.496 2.135-1.002 4.268-1.509 6.4q-.747 3.177-1.487 6.357c-.45 1.935-.908 3.867-1.366 5.8-.76 3.534-1.305 7.011-1.772 10.593l1.137-2.273a5028 5028 0 0 1 3.203-6.395q1.57-3.15 3.101-6.32l1.309-2.7 1.172-2.449C480 340 480 340 482 339c.7-1.653 1.36-3.323 2-5q1.492-2.895 3.063-5.75l1.597-2.922C490 323 490 323 491 322c2.863-.073 5.7-.092 8.563-.062l2.443.013q2.997.02 5.994.049a4620 4620 0 0 1-11.5 21l-2.867 5.215a3356 3356 0 0 1-4.64 8.414l-1.618 2.933-1.352 2.442c-1.145 2.11-1.145 2.11-2.023 4.996l2 1h-2l1 2 3 49h271v18c-3.32.83-5.6 1.125-8.943 1.123l-3.033.006-3.325-.009-3.537.003q-4.86.001-9.721-.007-5.24-.005-10.483-.002-9.081 0-18.162-.008-13.13-.011-26.26-.012-21.3-.004-42.603-.019-20.694-.014-41.388-.02h-2.576l-12.796-.005Q523.087 438.034 470 438l-.166-2.27-.764-10.406-.26-3.567c-.83-11.262-1.795-22.51-2.81-33.757-3.714 7.428-6.045 15.224-8.062 23.25l-.776 3.028A476 476 0 0 0 452 437h-18c1.438-9.317 3.353-18.467 5.423-27.658a4218 4218 0 0 0 1.743-7.782q1.537-6.884 3.082-13.767 2.46-10.966 4.911-21.936.845-3.775 1.695-7.55a944 944 0 0 0 5.853-28c1.188-6.097 1.188-6.097 2.293-8.307 4.466-1.489 8.449-.694 13 0z"/><path fill="#C3B0A4" d="m328.965 504.968 1.543 2.606 1.783 2.932 1.834 3.181 1.936 3.244q1.993 3.349 3.96 6.714a441 441 0 0 0 5.877 9.632l3.602 5.848 1.727 2.741 1.554 2.58 1.377 2.234c1.609 4.433.076 7.781-1.737 11.964a369 369 0 0 1-2.026 4.028l-1.096 2.19q-1.149 2.286-2.308 4.568a1211 1211 0 0 0-3.47 6.898 689 689 0 0 1-5.53 10.78 696 696 0 0 0-2.67 5.163l-1.497 2.745-1.235 2.305c-2.955 3.122-6.932 2.643-11.014 2.868l-3.747.092-2.05.055q-2.154.057-4.31.11c-3.713.09-7.424.195-11.136.3l-2.197.062c-8.055.235-16.094.66-24.135 1.192-6.452-11.404-12.624-22.93-18.62-34.582l-1.595-3.094-1.41-2.747c-1.326-2.632-1.326-2.632-3.174-5.035C248 554 248 554 248.626 551.102L250 548l1.385-3.197 1.592-3.424.875-1.884q.918-1.972 1.84-3.941c.915-1.952 1.82-3.908 2.726-5.865 4.221-9.068 8.794-17.908 13.582-26.689a8802 8802 0 0 1 20.123-.482q3.42-.08 6.841-.166c3.284-.083 6.568-.157 9.852-.23l3.073-.083c13.862-.29 13.862-.29 17.076 2.929M307 525c.195 1.95.195 1.95 1 4 1.95 1.225 1.95 1.225 4 2l1 1c1.666.04 3.334.043 5 0 .783-1.792.783-1.792 1-4-.96-2.308-.96-2.308-3-4-4.172-1.217-5.302-1.465-9 1m-34 3-3 2c-.25 2.584-.25 2.584 0 5q2.486.572 5 1c1.265-1.054 1.265-1.054 1.25-3.438L276 530zm20 15 1 2Zm1 2 1 3v-3zm-23 3a177 177 0 0 0-1 7c1.066 1.296 1.066 1.296 3.563 1.062L276 556c.688-2.354.688-2.354 1-5l-2-3zm26 7 1 2Zm-1 2-1 4 2-4zm11 4c-1.296 1.066-1.296 1.066-1.062 3.562L306 567l4-1 1-5zm-14 1 1 2Zm36 0v5h4l2-2v-4c-3.776-.298-3.776-.298-6 1m-37 3 1 2Zm-1 2 1 2Zm-17 1-2 2c-.073 2.555-.073 2.555 1 5 2.476 1.375 2.476 1.375 5 2 .86-2.293.86-2.293 1-5-1.771-2.355-1.771-2.355-4-4zm16 1 1 2Zm26 2 3 2v-2zm-2.687 3.5L312 576l2 1 4-4c-3.003-.332-3.003-.332-4.687 1.5M297 583l-2 2v4l7-1 1-3-2-2zm23 0-1 5h5l2-4z"/><path fill="#C2B1A6" d="m171.986 501.851 2.923-.017q6.564.011 13.129.078 3.462.026 6.924.002c3.337-.02 6.67.01 10.007.05l3.122-.048c6.928.162 6.928.162 9.538 2.615 1.35 2.095 2.366 4.189 3.371 6.469q1.156 2.192 2.328 4.377 1.183 2.34 2.352 4.69l1.263 2.538q1.307 2.636 2.607 5.277 1.329 2.69 2.682 5.367a792 792 0 0 1 3.885 7.817l1.228 2.4c2.379 4.927 3.192 8.063 1.655 13.534-1.332 3.003-1.332 3.003-3.027 5.992l-1.887 3.364-2.023 3.519-2.057 3.617q-2.043 3.59-4.103 7.17a467 467 0 0 0-4.91 8.854l-2.555 4.609-1.115 2.113c-2.59 4.558-2.59 4.558-5.756 5.438-8.324.756-16.708.362-25.052.15a383 383 0 0 0-7.03-.087c-3.394-.012-6.78-.095-10.172-.192l-3.164.03c-3.073-.133-5.32-.36-8.149-1.577-2.773-3.36-4.353-6.992-6-11q-.918-1.806-1.887-3.584l-1.586-3.08-1.787-3.461-3.617-7.023-1.783-3.454-1.708-3.325c-1.457-2.743-3.019-5.38-4.628-8.034-1.504-2.723-1.998-3.897-2.125-7.074 1.56-4.125 3.695-7.69 6.059-11.403l1.489-2.386a560 560 0 0 1 11.072-16.952c3.147-4.634 6.044-9.387 8.833-14.247 2.948-3.494 7.319-3.104 11.654-3.126M169 526c-.976 2.54-.976 2.54-1 5 1.215 1.435 1.215 1.435 4.813 1.25 3.627-.026 5.547-.61 8.187-3.25l-1-3-3-1-1-2c-3.033 0-4.599 1.214-7 3m45 2c-1.62 2.572-2.044 3.677-1.625 6.75L213 537c2.756-.498 2.756-.498 5-2 .04-2 .043-4 0-6zm-19 12 1 2Zm-1 2v3Zm-3 4c-2.097 2.718-3.055 4.215-2.812 7.687.68 2.469.68 2.469 2.812 4.313l-.125-3.75c-.012-3.266.268-5.465 2.125-8.25zm21 2c-1.765 3.088-2 4.233-2 8 2.416.167 2.416.167 5 0l2-2c-.322-3.1-.322-3.1-1-6zm-21 10 1 2Zm1 2 1 2Zm-38 1 1 6 5 1c.043-2 .04-4 0-6-1.066-1.296-1.066-1.296-3.562-1.063zm23 0v4l5 1-2-1 1-3zm16 1 1 2Zm1 2 1 2Zm1 2 1 2Zm1 2 1 2Zm16 1c-2.334 2.781-2.334 2.781-1.625 5.687L211 577c1.94-.276 1.94-.276 4-1 2.307-2.715 2.307-2.715 1.625-5.188L216 569zm-15 1 1 2Zm-29 2c1.156 2.539 1.156 2.539 3 5 2.591.887 2.591.887 5 1-1.88-2.82-3.222-4.177-6-6zm30 0 1 2Zm1 2 1 2Zm-37 8c.106 2.452.106 2.452 1 5 2.476 1.375 2.476 1.375 5 2l1-3c-1.098-2.27-1.098-2.27-3-4zm25 1v3l6 1-1-3z"/><path fill="#AA39F6" d="M585.831 459.022c1.903 3.22.701 6.254-.12 9.7l-.527 2.398c-.587 2.652-1.198 5.297-1.809 7.942q-.63 2.82-1.256 5.641a2912 2912 0 0 1-2.706 12.044c-2.116 9.34-4.166 18.695-6.222 28.049q-1.037 4.714-2.082 9.427a2400 2400 0 0 0-6.738 31.367l-.63 3.039q-1.477 7.134-2.925 14.273l-1.039 5.059-.459 2.306c-.725 3.506-1.48 6.637-3.318 9.733q-3.406.04-6.813.062l-3.832.036C542 600 542 600 539 599a1049 1049 0 0 1-3.035-33.293l-.257-3.437q-.522-7.038-1.033-14.076-.382-5.213-.773-10.424l-.23-3.241-.223-2.96-.19-2.61C533.202 527 533.202 527 532 526l-.55 2.675q-2.564 12.474-5.162 24.941-1.336 6.41-2.653 12.823a2781 2781 0 0 1-2.568 12.371 945 945 0 0 0-.972 4.724 850 850 0 0 1-1.377 6.608l-.788 3.802c-.906 2.976-1.41 4.294-3.93 6.056-2.707.328-2.707.328-5.813.25-1.017-.015-2.034-.03-3.082-.047-3.092-.202-6.054-.673-9.105-1.203 2.952-15.948 6.18-31.833 9.504-47.707l.614-2.935q2.219-10.587 4.444-21.17 2.235-10.63 4.462-21.26.875-4.17 1.754-8.341c2.096-9.985 4.096-19.98 5.934-30.016l.469-2.522.408-2.228C524 461 524 461 525 459h19c1.019 3.056 1.3 5.576 1.557 8.781l.293 3.603.306 3.901.325 4.018q.428 5.298.847 10.597c.447 5.629.902 11.257 1.355 16.885q.235 2.93.467 5.859c.543 6.794 1.135 13.578 1.85 20.356l.473-2.228q2.227-10.48 4.457-20.959l2.29-10.77q1.107-5.214 2.217-10.426l1.241-5.844A1205 1205 0 0 1 567 459c2.77-.249 5.54-.475 8.312-.688l2.381-.22 2.295-.166 2.11-.175c1.902.249 1.902.249 3.733 1.271M643.875 462.25c5.978 7.736 6.614 15.146 5.476 24.497-1.272 8.166-3.431 16.23-5.351 24.253l-21 1c.614-6.137 1.143-11.187 2.563-17 1.302-5.781 1.805-11.092 1.437-17-4.133-.072-4.133-.072-8 1-4.582 6.194-5.567 15.134-7.059 22.484l-1.243 5.925c-.575 2.753-1.141 5.508-1.708 8.262-1.116 5.424-2.25 10.844-3.384 16.264q-.618 2.967-1.234 5.936c-1.783 8.537-3.698 17.03-5.928 25.462-1.357 5.355-1.628 10.14-1.444 15.667 3.736.764 6.348 1.072 10 0 2.782-9.567 4.89-19.268 7-29h-3v-2h-5q.422-3.97.875-7.937l.238-2.288c.226-1.934.55-3.857.887-5.775l2-1v-3h30c-1.125 10.124-1.125 10.124-2.092 14.529l-.647 2.984-.695 3.135-.72 3.313q-1.137 5.208-2.284 10.414-1.138 5.196-2.271 10.392-.704 3.222-1.413 6.442A475 475 0 0 0 626 599c-2.949.777-5.568 1.162-8.625 1.188l-2.352.042C613 600 613 600 611 598c-.625-2.125-.625-2.125-1-4l-1.426 1.059-1.886 1.379-1.864 1.37c-3.886 2.539-7.612 2.42-12.136 2.505l-3.926.113c-4.936-.559-7.937-2.366-11.223-6.074-7.076-13.367-.595-31.194 2.461-44.914q.759-3.474 1.514-6.948 1.516-6.958 3.05-13.912c1.3-5.923 2.547-11.855 3.772-17.793l1.557-7.461q.474-2.287.938-4.575c2.603-12.81 5.768-25.554 15.419-34.937 11.328-7.466 26.2-10.503 37.625-1.562"/><path fill="#AB3AF6" d="M709.8 461.102c4.328 3.328 6.675 6.86 7.605 12.243.771 7.001.143 12.919-1.405 19.76l-.686 3.218q-.744 3.483-1.506 6.962c-.843 3.874-1.654 7.753-2.456 11.635a3280 3280 0 0 1-3.98 18.934q-1.155 5.42-2.288 10.843-1.123 5.376-2.274 10.746c-.42 1.975-.829 3.951-1.237 5.928-2.935 13.572-6.942 26.278-18.698 34.504-7.55 4.493-16.065 6.086-24.777 4.727-5.335-1.53-9.068-4.335-12.535-8.602-5.954-11.431-.76-27.055 1.894-38.992q.523-2.401 1.043-4.802 1.088-5.002 2.192-10 1.397-6.333 2.773-12.672 1.336-6.14 2.68-12.276l.5-2.29c1.73-7.909 3.514-15.805 5.428-23.672l.925-3.817c2.703-9.384 7.655-17.208 16.002-22.479 10.455-4.474 20.727-6.06 30.8.102M686 480c-2.72 3.824-3.737 7.362-4.691 11.93l-.444 2.081c-.485 2.286-.956 4.575-1.428 6.864q-.508 2.426-1.019 4.853-.821 3.897-1.635 7.795a1762 1762 0 0 1-3.827 17.832 6312 6312 0 0 0-2.775 12.712q-.677 3.1-1.364 6.2c-.646 2.923-1.28 5.85-1.91 8.776l-.587 2.603c-1.228 5.782-1.823 11.44-1.32 17.354 1.157 1.37 1.157 1.37 4.313 1.313 3.59-.002 3.59-.002 5.753-1.711 2.873-3.866 3.547-7.88 4.559-12.54l.73-3.204q.842-3.72 1.665-7.443c.913-4.133 1.854-8.259 2.798-12.385 5.907-25.68 5.907-25.68 10.995-51.53l.537-2.815c.649-3.912.91-6.034-.588-9.779L694 477c-3.686 0-5.038.852-8 3M757 460c-2.971 15.3-6.162 30.55-9.426 45.79l-1.197 5.597c-1.65 7.715-3.3 15.43-4.961 23.142q-1.544 7.17-3.071 14.345a1898 1898 0 0 1-1.164 5.408c-.543 2.505-1.076 5.01-1.608 7.517l-.486 2.214c-.92 4.394-1.364 8.5-1.087 12.987 1.354 1.944 1.354 1.944 3 3 2.947-.169 2.947-.169 6-2 5.465-9.599 6.67-22.51 8.914-33.195l1.381-6.48a8566 8566 0 0 0 3.598-16.985c1.215-5.751 2.439-11.5 3.662-17.25q2.064-9.705 4.12-19.41l.632-2.99 1.156-5.473A3389 3389 0 0 1 768 469l.539-2.575.53-2.478c.154-.735.31-1.47.47-2.227C770 460 770 460 771 459c1.486-.157 2.98-.25 4.473-.316l2.724-.127 2.865-.12 2.877-.13q3.53-.16 7.061-.307c-1.585 12.256-4.352 24.254-7 36.313q-1.492 6.825-2.977 13.652l-.762 3.505a1828 1828 0 0 0-5.034 24.096l-.67 3.289c-1.278 6.278-1.278 6.278-2.534 12.56-6.754 34.13-6.754 34.13-21.933 45.394-7.649 4.36-18.317 4.748-26.77 2.468-5.007-2.333-8.053-5.626-10.402-10.541-3.454-10.294-.196-22.143 2.082-32.423l.954-4.47c2.507-11.703 5.197-23.367 7.908-35.025 3.324-14.356 6.306-28.783 9.257-43.22l.56-2.725q.525-2.549 1.04-5.097c1.168-5.663 1.168-5.663 2.281-6.776 2.612-.292 5.192-.516 7.813-.687l2.197-.182c4.015-.268 6.51-.108 9.99 1.869"/><path fill="#AA3AF5" d="m476.41 458.867 3.248-.004 3.404.012 3.417-.012 3.244.004 2.992.004C495 459 495 459 496 460a137 137 0 0 1-.25 6.531l-.117 2.077q-.2 3.447-.41 6.892l-.284 4.876c-.304 5.208-.62 10.416-.939 15.624l-.156 2.563A16402 16402 0 0 1 491.438 537a37885 37885 0 0 0-1.474 23.296c-.636 10.072-1.252 20.143-1.645 30.229-.14 3.274-.334 6.335-1.319 9.475q-4.375.08-8.75.125l-2.5.05-2.422.02-2.222.032c-2.405-.26-4.019-1.035-6.106-2.227l1-1c.3-2.068.54-4.144.754-6.223l.4-3.818.409-4.021q.21-2.018.42-4.034.513-4.95 1.017-9.904l-19 1-2.152 6.09-2.066 5.818q-.719 2.025-1.434 4.054-1.029 2.909-2.063 5.815l-1.254 3.54C440 598 440 598 439 599c-1.34.156-2.688.25-4.035.316l-2.451.127-2.577.12-2.587.13q-3.175.159-6.35.307c.552-5.813 1.741-10.842 3.71-16.324l.848-2.42c.931-2.65 1.874-5.297 2.817-7.943q1.002-2.838 2.001-5.677A5755 5755 0 0 1 437 549l1.174-3.293q7.189-20.158 14.442-40.291a4189 4189 0 0 0 6.452-18.046q1.823-5.13 3.655-10.26.833-2.34 1.658-4.683 1.116-3.162 2.248-6.318l1.252-3.532c1.859-4.281 4.227-3.705 8.53-3.71M473 502a115758 115758 0 0 0-12.402 34.082l-1.045 2.87-.97 2.668-.855 2.349A239 239 0 0 0 456 549h14c2.039-4.078 2.42-7.09 2.633-11.512l.126-2.205q.129-2.308.246-4.617c.119-2.329.249-4.656.382-6.984.401-7.23.729-14.438.613-21.682z"/><path fill="#AA3BF5" d="M906 460c5.917 4.888 8.807 10.454 10 18 .006 2.983-.333 5.862-.75 8.813l-.266 2.271c-.467 3.63-.925 5.827-2.984 8.916-2.063.249-2.063.249-4.57.074l-2.715-.166-2.84-.22-2.863-.186A609 609 0 0 1 892 497l.254-3.176.308-4.137.17-2.091c.234-3.221.3-5.5-.732-8.596-2.249-.869-2.249-.869-5-1-4.5 2.617-5.683 5.088-7 10-1.095 10.17.393 17.92 5 27 17.783 35.764 17.783 35.764 11 58l-.773 2.633c-3.38 9.888-10.595 17.289-19.696 22.246-8.218 3.64-17.244 4.185-25.828 1.367-6.019-2.704-9.554-6.347-12.015-12.558-1.828-9.803.11-19.102 2.312-28.688 1-1 1-1 3.041-1.114l2.65.016 2.862.01 3.01.025 3.021.014q3.708.018 7.416.049l-.433 1.72c-1.165 4.873-1.798 9.302-1.692 14.342l.055 3.41L860 579c6.095.685 6.095.685 11.375-1.875 4.826-9.28 5.88-17.935 2.715-28.027-1.989-5.022-4.406-9.71-7.049-14.416-8.38-15.045-12.9-30.979-9.307-48.202 2.61-8.503 6.633-15.51 13.266-21.48l2.125-2.062c10.013-6.748 21.916-8.385 32.875-2.938"/><path fill="#AB3AF6" d="M398 322h16l.351 4.355q.65 8.043 1.303 16.086l.562 6.945q.404 5.009.811 10.016l.25 3.108A511 511 0 0 0 419 380l.41-2.023a74720 74720 0 0 1 5.815-28.604q1.134-5.585 2.271-11.17l.714-3.517.667-3.275.585-2.88c.465-2.188.996-4.361 1.538-6.531h17c-1.125 9-1.125 9-1.86 12.31l-.5 2.283-.542 2.415-.577 2.615q-.616 2.794-1.239 5.587-.989 4.442-1.969 8.886-1.735 7.853-3.478 15.705-2.778 12.52-5.546 25.044-.96 4.337-1.925 8.673c-2.32 10.463-4.475 20.933-6.364 31.482l-5.957.046q-2.243.019-4.484.044A179 179 0 0 1 408 437c-1.71-1.71-1.321-4.002-1.48-6.346l-.243-3.458-.25-3.762-.264-3.83q-.348-5.047-.686-10.096-.348-5.148-.704-10.295Q403.68 389.107 403 379l-.655 2.956-.92 4.146-.497 2.243a7841 7841 0 0 1-3.826 17.182l-.553 2.475a1286 1286 0 0 0-3.088 14.252c-.22 1.022-.44 2.044-.665 3.097a487 487 0 0 0-1.16 5.564c-.446 2.052-1.026 4.075-1.636 6.085-3.56 1.187-6.438 1.097-10.187 1.063l-3.856-.028L373 438l-1-4h2l.293-3.547c.787-7.007 2.457-13.837 4.02-20.703l1.037-4.618a6966 6966 0 0 1 2.97-13.131l2.184-9.643.788-3.48 1.607-7.098q1.984-8.764 3.975-17.527c2.44-10.738 4.855-21.478 7.126-32.253M192 322h18c-.578 5.938-1.45 11.625-2.812 17.43l-.527 2.294q-.546 2.373-1.1 4.744-.845 3.63-1.678 7.266l-1.07 4.633-.506 2.188c-.669 2.864-1.376 5.652-2.307 8.445l2.117-.254 2.758-.308 2.742-.317C210 368 210 368 212 369l.33-2.14c1.273-7.969 2.93-15.808 4.732-23.673 2.057-8.672 2.057-8.672 3.56-17.449C221 323 221 323 222 322a57 57 0 0 1 4.035-.098l2.451.01 2.577.026 2.587.013q3.175.02 6.35.049c-1.45 9.727-3.517 19.295-5.638 28.892q-.933 4.216-1.856 8.434-1.968 8.963-3.943 17.924a25305 25305 0 0 0-4.565 20.76q-.903 4.11-1.813 8.22c-2.25 10.226-4.33 20.465-6.185 30.77-3.619 1.206-6.925 1.108-10.687 1.063l-2.127-.014q-2.594-.02-5.186-.049c.604-9.142 2.522-17.942 4.438-26.88.566-2.64 1.123-5.282 1.68-7.925q.533-2.52 1.07-5.039l.505-2.392c1.191-5.532 1.191-5.532 2.307-7.764l-12 1-.902 4.083q-1.657 7.49-3.316 14.978l-1.434 6.487q-1.03 4.657-2.063 9.315l-.647 2.936-.607 2.73-.531 2.402C186 434 186 434 185 437h-17c.562-9.08 2.587-17.724 4.608-26.565 1.125-4.925 2.23-9.854 3.337-14.783l.725-3.22c3.08-13.716 6.044-27.457 9.013-41.197l1.33-6.157Q189.51 333.539 192 322"/><path fill="#B7ACB5" d="M581 268q2.514.428 5 1l1 5h2c.75 3.663 1.238 6.424 0 10l5 1c.625 2.875.625 2.875 1 6l-2 2h-3c-.419 2.79-.419 2.79 0 6 2.218 2.65 4.342 4.58 7.25 6.438 2.606 2.327 2.501 4.105 2.75 7.562-.532 2.832-1.407 5.518-2.312 8.25q-.709 2.255-1.407 4.512l-.68 2.193c-1.166 3.965-1.89 7.978-2.601 12.045l1.938.438C597 341 597 341 598 342q.062 3.5 0 7l-5 2c-.521 15.765-.26 32.919 10.43 45.71 1.157 1.131 2.36 2.215 3.57 3.29 2 4 2 4 2 16h-53c0-13.25 0-13.25 4.5-18.875C562 396 562 396 565 396l.348-2.617c.663-3.442 1.728-6.284 3.09-9.508 4.308-10.907 5.452-21.297 3.562-32.875l-1.812-.187c-3.06-1.137-3.738-2.986-5.188-5.813l2.5-2.062c3.172-3.727 2.85-5.14 2.5-9.938a117 117 0 0 0-1.937-7.75l-.553-1.996A173 173 0 0 0 565 315c-.375-3.437-.375-3.437 0-7 2.225-2.287 4.1-3.644 7.063-4.816 2.584-1.579 2.867-2.94 3.687-5.809l.734-2.477L577 293h-4l-1-7 2-1.062c2.403-1.888 2.403-1.888 2.188-5.5L576 276l1-2h2l.438-2.437C580 269 580 269 581 268"/><path fill="#B6ABB7" d="m680 269 1 5h2c.75 3.663 1.238 6.424 0 10l1.938.438C687 285 687 285 688 286c.04 2 .043 4 0 6l-5 1c.66 5.474.66 5.474 3.879 9.691a84 84 0 0 0 4.344 2.79C693 307 693 307 693.895 309.093c.156 4.32-1.064 8.095-2.27 12.219-1.689 5.877-3.312 11.555-3.625 17.687a210 210 0 0 0 5 4c-.187 3.75-.187 3.75-1 7l-5 1c-2.205 12.666.1 26.173 5 38l2 1 .875 3.313c1.194 3.912 2.285 4.936 5.125 7.687 2.51 5.398 2 8.515 2 15h-53c0-12.437 0-12.437 5-18.375 2-1.625 2-1.625 5-1.625l.313-3.125c.687-3.875.687-3.875 2.062-6.5 5.424-11.265 4.972-23.191 4.625-35.375l-2.441-.816L661 349c-.937-2.937-.937-2.937-1-6l2-3h4l-.427-1.785-1.948-8.152-.672-2.807q-.662-2.776-1.313-5.556a320 320 0 0 0-1.303-5.3l-.595-2.416c-.18-.702-.358-1.405-.543-2.13C659 310 659 310 660.5 307.188c2.5-2.188 2.5-2.188 5.625-4 3.994-3.04 4.065-5.331 4.875-10.188l-5-1c-.687-2.312-.687-2.312-1-5 1.25-1.812 1.25-1.812 3-3h3l-.562-3.875c-.563-3.875-.563-3.875.562-6.125h2l.375-2.437L674 269c2.49-1.245 3.41-.777 6 0"/><path fill="#AB3AF6" d="M799 459h59c-3 16-3 16-5 21h-18l-1.645 7.84c-2.645 12.582-5.345 25.152-8.043 37.723l-3.187 14.859-.8 3.725q-2.544 11.87-5.075 23.744l-1.854 8.685-1.16 5.446q-.794 3.735-1.591 7.466l-.466 2.198c-.607 2.835-1.261 5.56-2.179 8.314h-20c-1.578-3.157-.23-6.137.555-9.434l.535-2.326q.58-2.514 1.166-5.026c1.061-4.546 2.098-9.097 3.135-13.648l.656-2.876c2.316-10.204 4.456-20.444 6.578-30.69q1.112-5.36 2.227-10.719l.544-2.616c1.82-8.733 3.7-17.451 5.604-26.165l.449-2.06a3660 3660 0 0 1 1.938-8.844C813 483 813 483 814 480h-20zM251 322h40c-1 11-1 11-4 19h-21q-1.255 5.905-2.5 11.813l-.723 3.392-.683 3.252-.635 3c-.548 2.604-.548 2.604-.459 5.543h15c-1.75 13.25-1.75 13.25-4 20l-16 1q-1.285 5.925-2.563 11.853-.435 2.017-.874 4.033-.627 2.896-1.25 5.794l-.762 3.523c-.615 2.649-.615 2.649-.551 4.797h19c2.867 5.735-1.531 12.759-3 19l-38-1-1 2c.55-7.218 1.745-14.123 3.336-21.18l.713-3.233q.761-3.443 1.528-6.884c1.364-6.116 2.709-12.236 4.056-18.355l.84-3.811c3.002-13.642 5.897-27.306 8.777-40.974l.733-3.477Q248.995 331.544 251 322"/><path fill="#AB3BF6" d="M186 321c1.279 3.836.452 6.73-.375 10.563l-.422 2.076c-1.053 5.06-1.053 5.06-2.203 7.361l-1.758-.035c-.781-.01-1.562-.018-2.367-.027l-2.32-.036c-2.915.112-5.684.599-8.555 1.098q-3.029 13.955-6.051 27.909l-2.811 12.966q-1.36 6.265-2.716 12.532l-1.063 4.899c-1.625 7.48-3.246 14.954-4.662 22.477-.18.952-.36 1.903-.544 2.884a339 339 0 0 0-.887 4.994c-.388 2.113-.388 2.113-1.266 5.339-3.456 2.304-4.81 2.243-8.875 2.188l-3.117-.02c-2.775-.155-5.296-.594-8.008-1.168l.58-2.72 12.034-56.381c2.483-11.629 4.942-23.262 7.386-34.899-3.162-1.054-5.87-1.313-9.187-1.562l-3.293-.254L133 341q.177-2.22.375-4.437c.07-.824.14-1.648.21-2.497.55-4.065 1.525-8.062 2.415-12.066zm-38 20 1 2Z"/><path fill="#AA3AF4" d="m336 320 4 1c-.52 7.533-1.617 14.74-3.258 22.105l-.679 3.125c-.723 3.32-1.456 6.639-2.188 9.957l-1.497 6.868a8806 8806 0 0 1-6.136 27.89l-1.517 6.867q-.888 4.025-1.794 8.046l-.786 3.544-.677 3.016c-.587 2.8-.587 2.8-.468 6.582h20c1.263 2.527.854 3.417.223 6.133l-.557 2.441-.603 2.551-.592 2.574c-.484 2.102-.977 4.202-1.471 6.301l-2-1a268 268 0 0 0-8.945-.316l-2.682-.063q-4.249-.097-8.498-.183l-5.754-.131A7384 7384 0 0 0 296 437l.588-1.673a130 130 0 0 0 4.341-15.742l.514-2.39c.554-2.58 1.1-5.163 1.647-7.746l1.169-5.467q1.224-5.725 2.438-11.451 1.538-7.25 3.09-14.498 1.497-7.01 2.99-14.021l.558-2.616q1.583-7.426 3.135-14.859.556-2.658 1.117-5.316c.587-2.78 1.164-5.563 1.74-8.347l.554-2.606c1.1-4.216 1.1-4.216.119-8.268h16z"/><path fill="#AB3AF6" d="M386 321c1.286 2.571.837 3.554.223 6.338l-.6 2.761c-.224 1.003-.45 2.006-.68 3.039-.232 1.053-.462 2.107-.7 3.193-.768 3.5-1.547 6.999-2.325 10.497l-1.604 7.28q-1.902 8.623-3.818 17.243-1.954 8.811-3.892 17.624-1.658 7.524-3.323 15.046-.798 3.61-1.594 7.22a6308 6308 0 0 1-2.241 10.104l-.663 3.013-.625 2.796-.534 2.411c-.73 2.852-1.693 5.642-2.624 8.435l-17-1c.653-5.227 1.36-10.074 2.471-15.177l.44-2.03q.717-3.302 1.44-6.602l1.022-4.705q1.349-6.209 2.705-12.415 2.128-9.764 4.249-19.528l1.048-4.821C360.98 355.161 364.502 338.583 368 322z"/><path fill="#B89E7F" d="M581 268q2.514.428 5 1l1 5h2c.75 3.663 1.238 6.424 0 10l5 1c.625 2.875.625 2.875 1 6l-2 2h-3c-.419 2.79-.419 2.79 0 6 2.218 2.65 4.342 4.58 7.25 6.438 2.606 2.327 2.501 4.105 2.75 7.562-.532 2.831-1.405 5.52-2.312 8.25-2.018 6.241-3.388 12.251-4.688 18.75h-22l-1.312-7.437c-.845-4.667-1.741-9.158-3.375-13.625-1.353-3.79-1.949-6.883-1.313-10.938 2.225-2.287 4.1-3.644 7.063-4.816 2.584-1.579 2.867-2.94 3.687-5.809l.734-2.477L577 293h-4l-1-7 2-1.062c2.403-1.888 2.403-1.888 2.188-5.5L576 276l1-2h2l.438-2.437C580 269 580 269 581 268"/><path fill="#B79D7E" d="m680 269 1 5h2c.75 3.663 1.238 6.424 0 10l1.938.438C687 285 687 285 688 286c.04 2 .043 4 0 6l-5 1c.66 5.474.66 5.474 3.879 9.691a84 84 0 0 0 4.344 2.79C693 307 693 307 693.895 309.097c.156 4.301-1.063 8.05-2.27 12.152a635 635 0 0 0-1.398 4.89l-.639 2.173c-.84 3.84-1.154 7.78-1.588 11.687h-22l-2.375-9.937-.736-3.074q-.63-2.643-1.25-5.289a320 320 0 0 0-1.302-5.3l-.595-2.416c-.18-.702-.358-1.405-.543-2.13C659 310 659 310 660.5 307.188c2.5-2.188 2.5-2.188 5.625-4 3.994-3.04 4.065-5.331 4.875-10.188l-5-1c-.687-2.312-.687-2.312-1-5 1.25-1.812 1.25-1.812 3-3h3l-.562-3.875c-.563-3.875-.563-3.875.562-6.125h2l.375-2.437L674 269c2.49-1.245 3.41-.777 6 0"/><path fill="#A442DC" d="m125.493 457.865 2.038.028q2.245.035 4.49.08c2.517.052 5.034.09 7.551.126q5.705.083 11.41.178c10.931.178 21.863.31 32.795.43l3.752.042c41.983.45 83.97.338 125.953.315l12.873-.006q38.322-.017 76.645-.058l-1 3-284-1v15h262c-3.677 1.838-4.733 2.25-8.553 2.246l-2.768.012-3.03-.017-3.228.005c-3.581.003-7.162-.008-10.742-.019h-7.687q-8.283.002-16.566-.016c-7.984-.016-15.968-.021-23.952-.024a34624 34624 0 0 1-38.86-.036q-18.874-.028-37.75-.041l-2.35-.002-11.672-.007q-48.42-.033-96.842-.101-.118-4.438-.187-8.875l-.077-2.55-.029-2.442-.048-2.254L116 460c3.634-2.423 5.173-2.216 9.493-2.135"/><path fill="#B078E6" d="m573.828 394.902 2.27.005c2.384.005 4.768.018 7.152.03q2.43.009 4.86.014 5.944.017 11.89.049l1 2 2.375.813C606 399 606 399 609 404v12h-53c0-13.217 0-13.217 4.438-18.812 3.868-2.94 8.75-2.319 13.39-2.286"/><path fill="#B295DB" d="m665.39 394.867 3.84-.004 2.002.007c1.997.005 3.994 0 5.99-.007l3.856.004 3.513.004c9.416.357 9.416.357 13.221 3.317C702.516 404.234 702 408.036 702 416h-53c0-12.531 0-12.531 5-18.312 3.59-3.03 6.872-2.816 11.39-2.82"/><path fill="#B03CF3" d="M710 628c2.355.477 2.355.477 5 2 1.248 2.686 1.757 5.477 2.313 8.375l.51 2.328C718.58 644.277 719 647.311 719 651h2l-1-4h2l.313-3.312c.656-5.378 2.17-10.5 3.687-15.688l5 2c-2.374 10.432-4.944 20.743-8 31-3.75 1.125-3.75 1.125-6 0-.686-1.95-.686-1.95-1.29-4.473-.197-.81-.395-1.619-.6-2.453l-.735-3.136L712 641l-5 20-5 1c-2.255-6.573-4.277-13.195-6.187-19.875l-.827-2.836-.779-2.719-.704-2.445C693 632 693 632 693 629h5l.805 2.633 1.07 3.492 1.055 3.445A433 433 0 0 0 704 648l.55-1.836z"/><path fill="#B17BE5" d="m665.39 394.867 3.84-.004 2.002.007c1.997.005 3.994 0 5.99-.007l3.856.004 3.513.004c9.4.356 9.4.356 13.346 3.379C700 401 700 401 700 406h-50c1.08-5.403 1.969-6.545 6-10 3.342-1.114 5.87-1.13 9.39-1.133"/><path fill="#B39ADC" d="M608 404h1v11h-52c0-7 0-7 1.257-8.921 3.167-1.96 6.904-1.336 10.505-1.188l2.62.073c2.769.08 5.537.184 8.306.286q2.767.082 5.537.16 2.674.082 5.35.168l2.497.08c5.03.188 9.942.65 14.928 1.342z"/><path fill="#A741E4" d="M327 629h5c1.67 1.836 1.67 1.836 3.113 4.375l1.592 2.734 1.608 2.891 1.666 2.89A711 711 0 0 1 344 649l1-20h5v32h-5c-1.67-1.836-1.67-1.836-3.113-4.375l-1.592-2.734-1.608-2.891-1.666-2.89A592 592 0 0 1 333 641l-.076 1.804c-.116 2.69-.239 5.38-.361 8.071l-.12 2.84-.127 2.715-.11 2.507C332 661 332 661 331 663h-4z"/><path fill="#A63EE8" d="M469 629q2.514.428 5 1c1.158 4.054.837 6.218-1 10 3.052-.32 3.923-.91 5.965-3.285q1.973-2.778 3.937-5.563C485 629 485 629 487.754 628.692L490 629c-.597 3.342-1.736 5.464-4 8h-2c-1.433 2.276-2.035 3.576-1.812 6.29 1.02 3.406 2.703 5.59 4.875 8.398C491 656.8 491 656.8 491 659l3 1v1c-5.17.701-5.17.701-8 0-2.632-2.738-5-6.11-5-10h-2l-1-4-3 2c-.585 2.886-.585 2.886-.687 6.125l-.2 3.32L474 661c-3 1-3 1-6 0q-.037-6.595-.055-13.19-.008-2.244-.02-4.49a1806 1806 0 0 1-.023-6.441l-.016-3.92C468 630 468 630 469 629m5 12 1 2Z"/><path fill="#AC3BEF" d="M604 629c3 1.5 3 1.5 5 3l-1 5-1.715-.977c-3.71-1.661-7.3-1.605-11.285-1.023-2.445 1.757-2.807 3.146-3.457 6.023-.81 5.211-.329 9.04 1.457 13.977l3.813.563 2.144.316c2.246.26 2.246.26 5.043-.879v-6l-6-1v-4h11c1.348 2.695 1.28 4.93 1.375 7.938l.148 3.214C610 658 610 658 607.785 659.855c-5.436 2.234-10.728 1.856-16.222-.043-4.006-2.832-5.64-6.087-6.563-10.812a123 123 0 0 1-.062-5.75l.027-2.984L585 638h2l.563-2.25c3.464-6.628 9.657-7.516 16.437-6.75"/><path fill="#A53EE4" d="m499.766 628.886 2.27.016 2.45.01 2.577.025 2.587.014q3.175.02 6.35.049v5h-13v9l11-1c1 4 1 4 0 6h-10l-1 8h13l1 5h-21l1-5c.068-2.046.085-4.094.063-6.14l-.024-3.493-.039-3.617q-.038-3.57-.062-7.14l-.036-3.19c.136-3.358.136-3.358 2.864-3.534"/><path fill="#B13BF4" d="M248 629h18l1 5h-11v2h-2l-1 7 12-1v5c-4.265 1.422-7.554.58-12 0v9h14l1 5h-20z"/><path fill="#AA3CEC" d="M742 629q3.51.43 7 1l.246 2.3c1.055 5.176 2.95 9.956 4.817 14.888q1.118 2.956 2.222 5.917l.996 2.63C758 658 758 658 758 661h-6l-2-9-3 1c-2.043-.121-2.043-.121-4.187-.437L739 652l-2 9h-6a7886 7886 0 0 1 4.218-13.19q.718-2.244 1.434-4.49 1.028-3.222 2.063-6.441l.647-2.04c1.524-4.725 1.524-4.725 2.638-5.839m2 7a665 665 0 0 0-1.5 4.313l-.844 2.425c-.795 2.35-.795 2.35-.656 5.262l7-1-3-11z"/><path fill="#A742E4" d="m301 628 18 1 1 4-2 3-1-1a123 123 0 0 0-5.562-.562l-3.067-.254L306 634v9h14c-1 3-1 3-2 4-2.02.072-4.042.084-6.062.063l-3.348-.028L306 647v9h13l1 5q-4.187.29-8.375.563l-2.406.17c-5.992.38-5.992.38-8.219-.733a3836 3836 0 0 1-.482-12.653q-.08-2.151-.166-4.303-.122-3.095-.23-6.189l-.144-3.76C300 631 300 631 301 628"/><path fill="#A63EE6" d="M671 629h18l-1 5-12 1v6l-1 2h13l-1 5c-3.964.076-7.127-.032-11-1v9h14v5h-20a4566 4566 0 0 1-.055-12.225q-.008-2.079-.02-4.159a1657 1657 0 0 1-.023-5.98l-.016-3.633C670 632 670 632 671 629"/><path fill="#B43BFA" d="M627.563 628.938 630 629c2.84 6.7 5.344 13.53 7.813 20.375l.988 2.667.906 2.544.827 2.283c.525 2.402.243 3.824-.534 6.131v-2h-5l-2-9-10 1-1.187 3.938c-.82 2.207-.82 2.207-1.813 4.062-2.562 1.125-2.562 1.125-5 1l-2-2h2l.445-1.992c1.577-6.686 3.512-13.18 5.68-19.696l.805-2.43c2.315-6.864 2.315-6.864 5.633-6.944M627 636l-3 12h7l-3-12z"/><path fill="#AA3DEC" d="m795.938 628.688 2.59-.051c2.914.428 4.285 1.44 6.472 3.363l-1 6c-2-1-2-1-4-3-2.21-.243-2.21-.243-4.625-.125l-2.477.055L791 635v5l1.793.516c4.823 1.479 8.506 2.898 12.207 6.484 1.57 3.139 1.352 5.539 1 9-1.875 2.938-1.875 2.938-5 5-4.94.937-9.361.825-13.625-2L785 657l1-4 1.938.938c3.982 1.381 7.879 1.716 12.062 2.062v-7l-1.793-.48c-5.269-1.556-8.717-3.048-12.207-7.52-1-1.937-1-1.937-1-4 2.339-5.846 4.546-8.284 10.938-8.312"/><path fill="#BBB1B5" d="M662 340c2.75-.388 2.75-.388 6.215-.398l3.767-.012 3.956.035 3.943-.035 3.771.012 3.469.01c2.879.388 2.879.388 4.795 1.682 1.82 2.864.742 5.534.084 8.706l-5 1-1 3-2-2 1-2c-2.793.087-5.583.194-8.375.313l-2.406.068c-2.081.097-4.153.349-6.219.619l-2 3v-3l-2.437-.625C661 349 661 349 660.063 346.063 660 343 660 343 662 340"/><path fill="#AA3DEC" d="m566 630.25 2 1.75v4l-3 1-2-2c-2.21-.243-2.21-.243-4.625-.125l-2.477.055L554 635l1 5 3.438.875L562 642l1 2 1.938.938C567 646 567 646 569 649c.67 6.15.67 6.15-1.875 9.375-4.221 3.228-7.955 3.106-13.125 2.625-3.062-1.125-3.062-1.125-5-3-.312-3.187-.312-3.187 0-6l2-1 1 4q2.188.251 4.375.5l2.46.281c2.134.253 2.134.253 4.165.219v-6l-2.555-1.207-3.32-1.606-3.305-1.582C551 644 551 644 549 641c-.22-3.12.149-5.993 1-9 4.383-4.383 10.596-4.002 16-1.75"/><path fill="#A846E3" d="M270 628c2.793.371 2.793.371 6 2 1.647 3.201 2.449 6.58 3.313 10.063q.741 2.768 1.488 5.535l.63 2.484c.4 1.908.4 1.908 1.569 2.918l.563-1.896a802 802 0 0 1 2.625-8.479l.884-2.984.908-2.852.81-2.634c1.588-2.828 3.168-3.257 6.21-4.155-.588 7.14-2.522 13.584-4.75 20.375l-1.016 3.309-1.03 3.152-.918 2.86c-1.638 2.935-3.122 3.397-6.286 4.304-3.331-7.01-5.85-14.188-8.25-21.562l-1.102-3.346A2794 2794 0 0 1 269 629z"/><path fill="#A83CEA" d="M456 629c3.063 1.5 3.063 1.5 5 3l-1 5-1.5-1c-4.436-1.774-8.973-1.51-13.5 0-.224 2.04-.428 4.082-.625 6.125l-.352 3.445c-.024 3.595.655 6.11 1.977 9.43 4.316.762 7.744 1.16 12 0v-2l4 2c-.96 2.4-1.57 3.736-3.805 5.11-3.72 1.509-7.251 1.43-11.195.89-4.006-1.855-5.607-3.345-7.875-7.125-2.049-5.671-1.922-11.527 0-17.187 4.623-6.626 8.95-9.087 16.875-7.688"/><path fill="#A63EE5" d="M642 629h23v5h-10l.496 2.32c.667 4.87.61 9.647.567 14.555l-.014 2.953q-.018 3.585-.049 7.172h-6v-27h-9z"/><path fill="#A43FE2" d="M521 629h23l1 5h-10l.219 2.352c.707 8.236.893 16.384.781 24.648h-6v-27h-9z"/><path fill="#A53FE2" d="M395 629h24v5h-9l.016 2.37q.029 5.284.046 10.567l.026 3.733.01 3.545.016 3.285C410 660 410 660 409 661h-5v-27l-5 2c-2.312-1.125-2.312-1.125-4-3z"/><path fill="#A23EDF" d="M356 629h24l-1 7-1-2h-8v27l-4 1c-1-1-1-1-1.114-3.592l.016-3.412.01-3.682.026-3.876.013-3.89q.018-4.773.049-9.548h-9z"/><path fill="#AC3DF0" d="M758 628c2.688.375 2.688.375 6 2 2.32 3.513 5 7.696 5 12h2l.813-2.625c2.816-8.004 2.816-8.004 5.187-10.375a100 100 0 0 1 5 0c-1.372 3.679-3.072 6.933-5.062 10.313-4.002 7.262-4.084 13.531-3.938 21.687l-4 2c-2.344-3.516-2.033-4.214-1.625-8.25.189-7.388-2.86-12.261-6.527-18.402-1.63-2.952-2.453-5.041-2.848-8.348"/><path fill="#9F39DC" d="M186 321c1.312 3.937.243 6.125-1 10h-1v-6l-47-1-2 14 15 1c0 7.876 0 7.876-.794 11.495l-.527 2.447-.577 2.57-.591 2.699q-.619 2.809-1.246 5.614a1650 1650 0 0 0-1.89 8.591l-1.21 5.47-.566 2.59-.546 2.417-.47 2.117c-.631 2.155-1.524 4.014-2.583 5.99.451-10.295 2.826-20.17 5.063-30.187l1.142-5.198Q146.594 349.306 148 343c-3.162-1.054-5.87-1.313-9.187-1.562l-3.293-.254L133 341q.177-2.22.375-4.437c.07-.824.14-1.648.21-2.497.55-4.065 1.525-8.062 2.415-12.066zm-38 20 1 2Z"/><path fill="#B6A9CD" d="m570 380 2 1-1 7 28 1 3 6 2 3-4-1v-2l-35 1c.737-4.423 1.393-7.389 3.063-11.375l1.097-2.648z"/><path fill="#8E2CCA" d="m624.596 434.98 3.895-.005c4.516.032 9.005.228 13.509.525l2.383.145q2.808.172 5.617.355v1c-6.185.778-12.2 1.145-18.43 1.13l-2.73.005q-4.465.004-8.93-.002-3.179 0-6.356.004-8.493.003-16.986-.008-5.253-.006-10.505-.007c-38.029-.014-76.043-.326-114.063-1.122v-1a729554 729554 0 0 1 81.27-.573l34.37-.242 17.23-.122c6.576-.044 13.15-.075 19.726-.082"/><path fill="#B59AD0" d="M660 389q6.058-.037 12.115-.055 2.059-.008 4.118-.02c1.978-.013 3.957-.018 5.935-.023l3.602-.016c2.877.102 5.437.448 8.23 1.114v6l-35-1z"/><path fill="#A038DE" d="M251 322h40c-1 11-1 11-4 19h-21l-3 12h-1q.175-2.095.375-4.187c.07-.778.14-1.555.21-2.356C263 344 263 344 265 339h22l2-15h-37l-1 10c-.636 3.071-1.3 6.088-2.062 9.125l-.565 2.32q-.679 2.779-1.373 5.555h-1c.66-10.076 2.857-18.82 5-29"/><path fill="#AE3BF5" d="m469 629 5 1c1.158 4.054.837 6.218-1 10 3.052-.32 3.923-.91 5.965-3.285q1.973-2.778 3.937-5.563C485 629 485 629 487.754 628.692L490 629c-.604 3.381-1.696 5.45-4 8l-2.625 1.5c-2.469 1.26-2.469 1.26-3.25 3.375-.149 2.53.262 4.674.875 7.125-1.5-1.375-1.5-1.375-3-3v-2h-2l-1 3h-2l-1 13h-2zm5 12 1 2Z"/><path fill="#A53DE6" d="M710 628c2.355.477 2.355.477 5 2 1.248 2.686 1.757 5.477 2.313 8.375l.51 2.328C718.58 644.277 719 647.311 719 651h2l-1-4h2l.313-3.312c.656-5.378 2.17-10.5 3.687-15.688l5 2-2 4v-3l-2 1c-.702 2.204-.702 2.204-1.184 4.875l-.623 2.984q-.63 3.14-1.25 6.282l-.627 2.984-.548 2.758L722 654l-3 1-6-23h-2l-6 24h-2l-2.93-11.719-.538-2.125q-.546-2.212-1.04-4.437c-.439-1.92-.96-3.822-1.492-5.719l-2-1 1 6c-2.565-2.565-2.54-4.477-3-8h5l.805 2.633 1.07 3.492 1.055 3.445A433 433 0 0 0 704 648l.55-1.836z"/><path fill="#A245DA" d="M248 629h18l1 5h-11v2h-2l-1 7 12-1v5c-4.265 1.422-7.554.58-12 0v9h14l1 5h-20zm1 2v29h17v-3h-14v-11h12v-2h-12v-11h13v-2z"/><path fill="#AA3CEC" d="M425 629h5c2.111 4.222 1.227 9.732 1.24 14.376.01 2.05.041 4.1.072 6.15l.016 3.908.028 3.595C431 660 431 660 429.48 661.91L428 663v-2h-3z"/><path fill="#B23AF9" d="M499 631h15v2h-12v11h11v2h-12l1 11 13 1v2h-16z"/><path fill="#A43DE2" d="M627.563 628.938 630 629l1 4-6-2-.277 2.785c-.771 5.397-2.589 10.489-4.285 15.653l-.999 3.083A1959 1959 0 0 1 617 660h2l2-9h13c2 5 2 5 2 8h3l-1.277-3.324-1.66-4.364-.842-2.185c-1.399-3.69-2.61-7.208-3.221-11.127 3.753 1.877 4.373 7.023 5.688 10.813l1.01 2.775.939 2.682.866 2.456c.543 2.484.314 3.894-.503 6.274v-2h-5l-2-9-10 1-1.187 3.938c-.82 2.207-.82 2.207-1.813 4.062-2.562 1.125-2.562 1.125-5 1l-2-2h2l.445-1.992c1.577-6.686 3.512-13.18 5.68-19.696l.805-2.43c2.315-6.864 2.315-6.864 5.633-6.944"/><path fill="#9F3ADC" d="M799 459h59c-2 11-2 11-4 13 .875-7.625.875-7.625 2-11h-56l-1 2z"/><path fill="#A13ADF" d="M472 320c1.938.313 1.938.313 4 1 1.648 4.943-.2 9.636-1.312 14.625l-.686 3.258-.678 3.094-.622 2.846L472 347l-2 1c.676-7.84 2.285-15.32 4-23l-14-1-.34 3.25c-.707 5.66-1.98 11.188-3.223 16.75l-.708 3.215q-.86 3.893-1.729 7.785h-1c.336-7.318 1.563-14.395 3-21.562l.54-2.707c1.325-6.461 1.325-6.461 2.46-8.731 4.466-1.489 8.449-.694 13 0z"/><path fill="#B039F6" d="M357 631h22l-1 2h-9v27h-3v-27h-9z"/><path fill="#B238F7" d="M522 631h22v2h-9l-1 27h-3v-27h-9z"/><path fill="#AE3FF1" d="M271 630c2.74 1.001 3.794 1.579 5.097 4.247l.825 2.76.918 2.99.91 3.128.957 3.152q1.167 3.856 2.293 7.723h3v5l-5 1c-8.21-19.741-8.21-19.741-9-30"/><path fill="#B339FB" d="M672 631h16v2h-14l.563 5.188c.577 6.727.094 13.1-.563 19.812h14v2h-16z"/><path fill="#B33AF8" d="M302 631h16v2h-13l.063 4.438c.02 1.52.009 3.043-.063 4.562l-1 1a168 168 0 0 0-.562 6.563l-.254 3.628L303 656h2v2h13v2h-16z"/><path fill="#9F37E0" d="M790 458c1.367 4.101.301 7.425-.582 11.535l-.528 2.529q-.555 2.645-1.123 5.288c-.578 2.701-1.139 5.406-1.699 8.11l-1.088 5.136-.508 2.459C783.23 498.77 783.23 498.77 781 501c.5-8.77 2.507-17.123 4.563-25.625l.998-4.2c.805-3.393 1.622-6.784 2.439-10.175h-18l-1 4a100 100 0 0 1 0-5c1.55-1.55 3.1-1.217 5.254-1.316l2.588-.127 2.72-.12 2.733-.13q3.353-.16 6.705-.307"/><path fill="#B23BF9" d="m744 630 3 1c1.203 2.8 1.203 2.8 2.25 6.313l1.078 3.488c.626 2.981.746 4.411-.328 7.199q-.974-2.374-1.937-4.75l-1.09-2.672A47 47 0 0 1 745 634c-3.645 8.47-6.332 17.187-9 26h-3l.586-1.941c1.145-3.805 2.288-7.606 3.351-11.434.982-3.348 2.001-6.677 3.063-10l1-3.148c1-2.477 1-2.477 3-3.477"/><path fill="#A238E6" d="m402 371 3 1c2.388 28.152 2.388 28.152 2 40h-1c-1.297-10.996-2.35-21.946-3-33l-4 16c-.953-3.814-.996-5.11-.223-8.766l.557-2.695c.2-.92.398-1.84.603-2.789l.592-2.836q.724-3.458 1.471-6.914"/><path fill="#B6AACC" d="m659 391 3.918.219c9.706.524 19.359.94 29.082.781v3h-33z"/><path fill="#A038E0" d="M192 322h18a152 152 0 0 1-2.937 18.5l-.514 2.453c-.448 2.032-.991 4.043-1.549 6.047l-2 1c.647-8.89 2.87-17.372 5-26h-15l-.375 5.313c-.272 3.856-.435 5.402-2.625 8.687q.214-2.595.438-5.187c.08-.963.162-1.926.246-2.918.29-2.653.793-5.279 1.316-7.895"/><path fill="#B339F9" d="M397 631h21v2h-10v27h-2v-27h-9z"/><path fill="#AB39F1" d="M627 634h2c2.429 6.286 2.429 6.286 1 10l-2-5-4 9h7l1-3v3h2c4.429 7.429 4.429 7.429 5 11h-3l-2-8h-12c0-5.639 0-5.639 1.375-9.062l.824-2.067c.857-2.001 1.764-3.956 2.801-5.871"/><path fill="#B437FB" d="M642 631h22v2c-7.75.125-7.75.125-10-1v28h-2v-27h-9z"/><path fill="#A33EE2" d="M742 629q3.51.43 7 1l-2 4-1-3h-4l-.312 2.875c-1.346 9.198-5.006 17.654-8.688 26.125h3l2-9h13l1 6-2-2v-3l-3 1c-2.043-.121-2.043-.121-4.187-.437L739 652l-2 9h-6a7886 7886 0 0 1 4.218-13.19q.718-2.244 1.434-4.49 1.028-3.222 2.063-6.441l.647-2.04c1.524-4.725 1.524-4.725 2.638-5.839"/><path fill="#9F37DE" d="m223.766 321.886 2.27.016 2.45.01 2.577.025 2.587.014q3.175.02 6.35.049l-2 9c-1-3-1-3 0-7h-15l-.75 5.437c-1.265 8.304-3.24 16.413-5.25 24.563h-1c.337-7.336 1.567-14.438 3-21.625l.54-2.731c1.55-7.585 1.55-7.585 4.226-7.758"/><path fill="#A948E2" d="M248 629h18l1 5h-11v2h-2l-1 7 12-1v5l-1-3h-12v-11h13v-2l-17 1z"/><path fill="#A038E2" d="M757 460a6297 6297 0 0 1-2.375 12.063l-.672 3.435c-1.106 5.582-2.265 11.066-3.953 16.502h-1c.632-7.024 1.942-13.705 3.563-20.562l.708-3.057q.86-3.691 1.729-7.381h-18v-2q3.873-.331 7.75-.625l2.21-.195c4.042-.294 6.537-.177 10.04 1.82"/><path fill="#B139FA" d="M328 631h4l1 4-3-1 .496 2.352c.649 4.697.61 9.288.567 14.023l-.014 2.809q-.018 3.408-.049 6.816h-3z"/><path fill="#A73FE5" d="M598 644h11c1.382 2.765 1.095 5.046 1.063 8.125l-.028 3.32L610 658h-3l1-13h-8v2h6q.079 2.187.125 4.375l.07 2.46C606 656 606 656 604 658c-4.44.335-8.105.291-12-2-.812-2.125-.812-2.125-1-4l2 1v2l3.813.563 2.144.316c2.246.26 2.246.26 5.043-.879v-6l-6-1z"/><path fill="#A039DE" d="M386 321c1.663 3.326-.02 6.684-.937 10.125l-.592 2.285q-.728 2.797-1.471 5.59h-1q.216-2.062.438-4.125c.08-.766.162-1.531.246-2.32.354-2.864.842-5.71 1.316-8.555h-15l-.375 5.313c-.272 3.856-.435 5.402-2.625 8.687q.214-2.595.438-5.187c.08-.963.162-1.926.246-2.918.29-2.653.793-5.279 1.316-7.895z"/><path fill="#B03AF8" d="M347 631h2v29h-5c0-2 0-2 2-4 .262-2.508.262-2.508.16-5.41l-.033-3.248-.065-3.404q-.051-3.33-.09-6.66l-.054-2.993C346 632 346 632 347 631"/><path fill="#C8A697" d="m327 503 1 4h-2v-3l-1.668.5c-2.633.565-4.952.56-7.644.5-4.78-.047-9.483.15-14.25.5-17.3 1.225-17.3 1.225-22.438-1.5 8.575-.894 17.136-1.325 25.75-1.625l3.863-.156 3.746-.133 3.359-.124c3.505.04 6.825.472 10.282 1.038"/><path fill="#9E36E2" d="m619 460-1.941.813c-10.959 4.964-15.89 12.42-20.309 23.25-.913 3.037-.913 3.037-.687 6.687L596 494l-3 2c-.88-9.685 3.084-18.484 8.73-26.16 1.452-1.92 1.452-1.92 2.27-4.84 2.363-1.64 2.363-1.64 5.313-3.25l2.925-1.64c2.899-1.165 3.927-1.268 6.762-.11"/><path fill="#A236E4" d="M195 386h15l-1 6-1-4-12 1-1.023 4.742-1.352 6.133-.672 3.129-.664 2.988-.603 2.761C191 411 191 411 189 413c.428-5.995 1.539-11.624 3-17.437l.54-2.153c1.32-5.128 1.32-5.128 2.46-7.41"/><path fill="#B798D5" d="m599 389 1.375 2.813c1.567 3.226 1.567 3.226 3.625 6.187l-4-1-1-5h-31v-2a34204 34204 0 0 1 17.783-.645l3.799-.136 3.507-.127q2.955-.093 5.911-.092"/><path fill="#A036E5" d="M473 523h1c.112 9.074-.058 17.963-1 27-3.619 1.206-6.925 1.108-10.687 1.063l-2.127-.014q-2.594-.02-5.186-.049l1-2c3.16-.414 3.16-.414 7.063-.625l3.91-.227L470 548c1.202-3.605 1.316-7.052 1.5-10.812.238-4.79.61-9.467 1.5-14.188"/><path fill="#A036E3" d="M853 474h1c.043 1.666.04 3.334 0 5-1 1-1 1-2.766 1.114l-2.27-.016-2.45-.01-2.577-.026-2.587-.013q-3.175-.02-6.35-.049l-.586 3.21-.789 4.165-.383 2.117c-1.015 5.281-1.015 5.281-3.242 7.508.624-6.45 1.66-12.658 3-19h20z"/><path fill="#A13BE0" d="M791 587h1a764 764 0 0 1-.437 4.375l-.247 2.46C791 596 791 596 790 598h18l1-8h1c.125 6.625.125 6.625-1 10h-20c-1.45-2.9-.454-4.56.438-7.625l.87-3.04z"/><path fill="#9E38DC" d="M431 322h17l-1 6-1-4h-14l-.375 3.938c-.524 4.78-1.488 9.393-2.625 14.062h-1c.486-6.848 1.36-13.33 3-20"/><path fill="#C9A999" d="M185 503h31l1 5-3 1-2-4h-9l-3.723.07-4.34.055c-.732.017-1.465.034-2.22.05-1.907.018-3.813-.071-5.717-.175z"/><path fill="#A642E0" d="M295 628c-.47 7.84-3.23 14.72-6 22-1.723-4.085-.073-7.37 1.438-11.25l.736-1.969c.599-1.597 1.211-3.19 1.826-4.781h-2l-.586 2.195c-1.343 4.985-2.701 9.93-4.414 14.805-1.717-4.11-.168-7.64 1.188-11.625l.634-2.062c1.647-4.946 1.647-4.946 4.291-6.774C294 628 294 628 295 628"/><path fill="#B33BF9" d="M600 645h8v13c-4.753 2.377-6.8 2.335-12 2l-2-2 2.152-.184 2.785-.254c.917-.08 1.834-.162 2.778-.246 2.247-.076 2.247-.076 3.285-1.316.232-1.515.412-3.038.563-4.562l.253-2.504L606 647h-6z"/><path fill="#A53EE5" d="M449.086 628.602c4.81.049 7.96.337 11.914 3.398l-1 5-1.5-1c-3.61-1.444-6.613-1.123-10.5-1h-3c3.841-2.711 6.32-3.32 11-3h1-13c3-3 3-3 5.086-3.398"/><path fill="#B33BFA" d="M442 636c1.358 4.075 1.022 7.825.938 12.09.054 2.554.098 4.55 1.062 6.91l3 1-1 3c-3.832-3.429-6.037-5.897-7-11 .14-9.14.14-9.14 3-12"/><path fill="#A037E0" d="m587 461-2 7c-.934-3.01-1.044-3.867 0-7h-17l-1 7h-1l1-9c2.77-.249 5.54-.475 8.313-.687l2.38-.221 2.295-.166 2.11-.175c2.495.327 3.323 1.36 4.902 3.249"/><path fill="#B49FC2" d="m570 380 2 1-1 7 25 1v1h-28l-1 4c-1.371-3.69-.6-5.709.938-9.25l1.152-2.703z"/><path fill="#A039DF" d="M398 322h16v17h-1l-1-15h-13l-1 4z"/><path fill="#9F37E2" d="m843.041 556.886 2.65.016 2.862.01 3.01.025 3.021.014q3.708.018 7.416.049l-2 7-1-4-17-1-1 5h-1c-.043-2-.04-4 0-6 1-1 1-1 3.041-1.114"/><path fill="#A93EE7" d="M604 629c3 1.5 3 1.5 5 3l-1 5-1.703-.96c-2.449-1.109-4.38-1.43-7.047-1.665l-2.422-.227L595 634c2-2 2-2 3.875-2.012l2.125.324 2.125.301C605 633 605 633 607 634v-2c-7.54-1.079-7.54-1.079-15 0 2.13-4.261 7.797-3.49 12-3"/><path fill="#A33EE3" d="M711 636h2l-2.402 10.254A919 919 0 0 1 707 661a88 88 0 0 1-5 1c-1-1-1-1-1.062-3.562L701 656l2 3 3 1 .078-1.695c.55-7.763 2.626-14.894 4.922-22.305"/><path fill="#9A33DB" d="M616 435c11.375-.14 22.65.264 34 1v1c-5.855.836-11.594 1.11-17.5 1.125l-2.178.014c-5.198-.015-5.198-.015-6.322-1.139a70 70 0 0 0-4.062-.562L616 436z"/><path fill="#9F39DE" d="m182 337 1 4-1.758-.035c-4.542-.053-8.77.117-13.242 1.035l-2 7c-1.626-4.228-.655-5.036 1-10h15z"/><path fill="#A035E2" d="M371 386h1c-.431 8.965-2.699 17.374-5 26h-1l.438-3.812c.309-2.71.578-5.41.78-8.13l.22-2.933.183-2.742C368 392 368 392 370 389z"/><path fill="#B43FF8" d="M291 632h2a384 384 0 0 1-3.437 13.313l-.684 2.488c-.941 2.354-1.974 3.56-3.879 5.199.576-5.146 1.747-9.55 3.563-14.437l1.378-3.747c.35-.929.7-1.858 1.059-2.816"/><path fill="#AC48E6" d="M356 629h24l-1 7-1-2h-9v-1l1.934-.148 2.503-.227 2.497-.21L378 632l1-2h-23z"/><path fill="#BEB0B9" d="M301 598v1c-8.05 2.26-15.703 2.197-24 2 2.875-2.875 5.177-2.411 9.188-2.625l3.917-.227A237 237 0 0 1 301 598"/><path fill="#A542E2" d="M772 645c1.067 3.462 1.102 6.64 1.063 10.25l-.028 3.266L773 661l-4 2-2-3 1-3 3 2-.035-2.555-.028-3.32-.035-3.305C771 647 771 647 772 645"/><path fill="#B13FF5" d="M336 642c3.653 1.25 4.78 1.671 7 5 .818 2.64 1.38 5.303 2 8-3.786-1.262-4.218-2.549-6.187-5.937l-1.606-2.715C336 644 336 644 336 642"/><path fill="#B4A6A0" d="M668 350h16v2c-3.27 1.031-5.86.964-9.25.563l-2.703-.31L670 352l-1 2-2 1z"/><path fill="#B63BFB" d="m559.688 630.875 3.011.055L565 631l1 4-1.562-1.062c-3.378-1.3-5.943-.61-9.438.062l-.875 2.438C553 639 553 639 551 640c-.187-3.375-.187-3.375 0-7 3.42-2.28 4.682-2.22 8.688-2.125"/><path fill="#9A35D5" d="M200 427c1.226 3.678.843 4.784 0 9h14l1-2-1 4h-16c.875-9.875.875-9.875 2-11"/><path fill="#9B36DA" d="M626 587h1c.193 4.824-.243 8.496-2 13h-12v-3h11z"/><path fill="#A942E5" d="M793 632c4.24-.393 7.367-.325 11 2l1-2-1 6c-2-1-2-1-4-3-2.21-.243-2.21-.243-4.625-.125l-2.477.055L791 635z"/><path fill="#B030FB" d="M359 577h1c.556 11.76.556 11.76-3 16l-2 2z"/><path fill="#9737D5" d="m390 595 2 2c2.91.145 5.72.186 8.625.125l2.43-.027c1.982-.024 3.963-.06 5.945-.098l-1 3h-18l-1-3z"/><path fill="#C8AC9B" d="M164.75 502.625 167 503a173 173 0 0 1-4 3.875c-2.065 1.983-2.065 1.983-3.062 4.313C159 513 159 513 156 514c3.775-10.697 3.775-10.697 8.75-11.375"/><path fill="#9330CE" d="M361 430h1v7c-3.213 1.607-6.63.825-10.125.563l-2.285-.159q-2.796-.196-5.59-.404v-1h16z"/><path fill="#C7AE9B" d="M144 531c.676 1.738.676 1.738 1 4-1.145 2.105-1.145 2.105-2.812 4.188l-1.645 2.105C139 543 139 543 137 544c1.642-4.776 4.265-8.794 7-13"/><path fill="#A640E4" d="M485 629h5c-.6 3.356-1.846 5.378-4 8l-2-1 3-4-4 1z"/><path fill="#A73FE7" d="m758 628 6 2-1 2h-2l2 6c-2.025-1.933-3.421-3.632-5-6z"/><path fill="#9D36DE" d="M576 587c2 3 2 3 2.875 5.563 1.334 2.89 2.253 3.27 5.125 4.437l2 2c-3.405-.284-4.763-.77-7.25-3.187-1.89-3.036-2.421-5.28-2.75-8.813"/><path fill="#C9AE9B" d="m153 518 1 2c-.777 1.945-.777 1.945-1.937 4.125l-1.153 2.195L150 528h-3c1.37-3.995 3.257-6.8 6-10"/><path fill="#9631D2" d="M389 431h1v6c-3.311 1.104-5.247.927-8.687.563l-3.012-.31L376 437v-1h12z"/><path fill="#A445DE" d="m489 656 2 1v2l3 1v1h-8l-1-4 4 1z"/><path fill="#C1B9B9" d="m286 579 2 4-3 1-1 2c.875-5.875.875-5.875 2-7m-4 7h2l-2 4-1-3z"/><path fill="#AD4BE8" d="M133 340h16l-1 3-3-1a189 189 0 0 0-6.187-.562l-3.293-.254L133 341z"/><path fill="#9E37E3" d="m871 465 1 3-6 5c0-3 0-3 2.5-5.687z"/><path fill="#A236E6" d="M396 400h1c-.114 1.626-.242 3.25-.375 4.875l-.21 2.742C396 410 396 410 394 412v-9h2z"/><path fill="#A939F1" d="M501 633h1v11l2 1-4 3z"/><path fill="#A13AE2" d="M375 428c.91 3.073 1.089 5.801 1 9l-3 1-1-4h2z"/><path fill="#B8A289" d="m690 316 2 3c-.875 3.688-.875 3.688-2 7l-2-1z"/><path fill="#A84FE0" d="M169 320h16v1h-16z"/><path fill="#AC5DDA" d="M496 320h7v1h-7z"/><path fill="#A74EE1" d="M160 320h7v1h-7z"/><path fill="#A74FDF" d="M152 320h7v1h-7z"/><path fill="#A74EE0" d="M225 320h6v1h-6z"/><path fill="#A753D9" d="M312 662h5v1h-5z"/><path fill="#CCBBB2" d="M272 549h3l-1 2h-2z"/><path fill="#CAB8AE" d="M216 530h1v5h-1z"/><path fill="#AB54DE" d="M466 320h5v1h-5z"/><path fill="#A94EE1" d="M378 320h5v1h-5z"/><path fill="#A850E0" d="M322 320h5v1h-5z"/><path fill="#CFB2A0" d="m311 525 4 1Z"/><path fill="#AA52DF" d="m435 320 4 1Z"/><path fill="#A94EDE" d="m331 320 4 1Z"/><path fill="#A750DB" d="m512 662 2 1-2 1z"/><path fill="#AB4DE1" d="m592 661 3 1Z"/><path fill="#AC4DE5" d="m518 657 2 2h-2z"/><path fill="#B04CEC" d="m843 596 2 2h-2z"/><path fill="#CCB8AC" d="m307 564 2 1-2 1z"/><path fill="#CDBAAC" d="m158 563 1 2-2-1z"/><path fill="#CABDB7" d="m211 553 2 2h-2z"/><path fill="#B64EF0" d="m299 438 3 1Z"/><path fill="#BFA9D1" d="m657 393 1 2-2-1z"/><path fill="#AA50E1" d="m403 320 3 1Z"/><path fill="#A851E1" d="m274 320 3 1Z"/><path fill="#A850E0" d="m266 320 3 1Z"/><path fill="#A84FE0" d="m258 320 3 1Z"/><path fill="#A94DE1" d="m203 320 3 1Z"/><path fill="#A64FDC" d="m144 320 3 1Z"/><path fill="#A64DDC" d="m517 663 2 1Z"/><path fill="#A752DC" d="m792 662 2 1Z"/><path fill="#A54FDB" d="m753 662 2 1Z"/><path fill="#A650D9" d="m720 662 2 1Z"/><path fill="#A84FDE" d="m704 662 2 1Z"/><path fill="#A651DA" d="m531 662 2 1Z"/><path fill="#A64FDA" d="m488 662 2 1Z"/><path fill="#AE4BEB" d="m744 653 2 1Z"/><path fill="#B351E9" d="m314 641 2 1Z"/><path fill="#B24FEB" d="m557 640 2 1Z"/><path fill="#AF51EA" d="m362 635 2 1Z"/><path fill="#B648F7" d="m599 579 2 1Z"/><path fill="#B246F5" d="m846 555 2 1Z"/><path fill="#CFB59F" d="m178 528 2 1Z"/><path fill="#CEB19D" d="m170 526 2 1Z"/><path fill="#CEA7AD" d="m312 501 2 1Z"/><path fill="#CDA7AA" d="m303 501 2 1Z"/><path fill="#B448F5" d="m620 479 2 1Z"/><path fill="#B25CD7" d="m117 479 2 1Z"/><path fill="#B14EEA" d="m851 457 2 1Z"/><path fill="#B34BEF" d="m786 457 2 1Z"/><path fill="#B14AF3" d="m754 457 2 1Z"/><path fill="#B34FF2" d="m633 456 2 1Z"/><path fill="#B44DF3" d="m374 439 2 1Z"/><path fill="#BB9FD5" d="m604 396 2 1Z"/><path fill="#B649F7" d="m196 391 2 1Z"/><path fill="#B747F6" d="m202 389 2 1Z"/><path fill="#B54CF2" d="m277 369 2 1Z"/><path fill="#B24AF3" d="m178 342 2 1Z"/><path fill="#B152EA" d="m477 324 2 1Z"/><path fill="#AF4DEB" d="m341 324 2 1Z"/><path fill="#AB55E1" d="m488 322 2 1Z"/><path fill="#B169D1" d="m504 320 2 1Z"/><path fill="#AB51E3" d="m444 320 2 1Z"/><path fill="#AA53E3" d="m441 320 2 1Z"/><path fill="#A951E0" d="m374 320 2 1Z"/><path fill="#AB50DF" d="m288 320 2 1Z"/><path fill="#A84BE2" d="m236 320 2 1Z"/><path fill="#A94DE4" d="m194 320 2 1Z"/><path fill="#A54CDA" d="m140 320 2 1Z"/></svg>